<?xml version="1.0" standalone="no"?>
<!DOCTYPE svg PUBLIC "-//W3C//DTD SVG 20010904//EN"
 "http://www.w3.org/TR/2001/REC-SVG-20010904/DTD/svg10.dtd">
<svg version="1.0" xmlns="http://www.w3.org/2000/svg"
 width="300.000000pt" height="300.000000pt" viewBox="0 0 300.000000 300.000000"
 preserveAspectRatio="xMidYMid meet">
<metadata>
Created by potrace 1.14, written by Peter Selinger 2001-2017
</metadata>
<g transform="translate(0.000000,300.000000) scale(0.100000,-0.100000)"
fill="#000000" stroke="none">
<path d="M1400 2824 c-275 -27 -518 -129 -743 -313 -38 -31 -73 -55 -79 -53
-5 1 -7 -1 -4 -6 3 -5 -2 -18 -12 -28 -176 -194 -285 -409 -338 -664 -26 -125
-24 -385 4 -500 28 -115 70 -249 87 -281 8 -14 12 -36 9 -50 -4 -20 -3 -21 4
-5 7 17 9 17 14 4 4 -9 1 -21 -5 -27 -9 -9 -8 -11 6 -5 13 5 16 2 10 -12 -5
-13 -3 -15 8 -9 11 7 11 5 -1 -10 -8 -10 -10 -16 -5 -13 6 4 17 3 25 -3 12 -7
12 -9 1 -9 -11 0 -11 -3 0 -17 8 -9 13 -19 13 -22 -1 -3 6 -21 14 -39 12 -25
20 -31 36 -26 19 6 19 6 3 -10 -22 -22 -22 -43 0 -25 14 12 16 12 11 -1 -5
-16 41 -72 53 -64 5 3 6 -2 3 -10 -3 -9 -11 -13 -17 -9 -6 3 -7 1 -3 -5 5 -9
13 -9 26 -2 16 9 18 8 14 -5 -7 -17 24 -58 36 -50 5 3 6 -4 3 -15 -4 -16 -2
-19 11 -14 10 4 16 1 16 -7 0 -15 53 -69 67 -69 4 0 1 5 -7 11 -10 7 -11 9 -2
7 8 -2 13 -8 13 -13 0 -15 41 -55 50 -49 5 3 6 -2 3 -11 -5 -11 -2 -14 12 -8
12 4 15 3 10 -5 -4 -7 -3 -12 1 -12 5 0 37 -21 72 -46 36 -26 69 -43 77 -40 8
3 12 1 9 -4 -6 -9 148 -87 215 -108 113 -36 173 -52 233 -62 72 -11 390 -15
407 -5 6 3 31 10 58 15 87 16 201 50 266 80 35 17 67 30 70 30 10 0 182 106
196 120 3 3 25 21 50 40 76 58 174 160 244 255 72 96 167 281 192 373 9 32 20
73 25 92 34 124 51 407 30 489 -5 20 -15 68 -22 106 -6 39 -16 76 -22 83 -5 6
-7 12 -3 12 3 0 0 17 -8 38 -8 20 -17 50 -20 65 -4 15 -10 25 -15 23 -11 -7
-18 19 -17 56 1 22 -1 25 -13 15 -12 -10 -13 -8 -6 13 7 23 7 24 -10 10 -16
-14 -17 -13 -11 8 8 23 -23 86 -47 96 -9 3 -9 5 1 5 6 1 12 6 12 13 0 6 -3 8
-7 5 -3 -4 -13 3 -21 14 -12 17 -16 18 -24 8 -7 -11 -8 -9 -6 6 1 11 -6 35
-15 53 -10 18 -15 38 -11 45 5 9 3 9 -7 -1 -11 -10 -10 -17 4 -41 31 -53 17
-47 -18 8 -19 30 -46 67 -60 81 -14 15 -23 33 -20 42 3 8 -4 23 -17 34 l-23
19 18 -21 c26 -31 20 -41 -8 -14 -14 13 -23 30 -20 38 2 7 1 11 -4 7 -5 -3
-31 16 -58 41 -173 165 -401 283 -646 334 -93 19 -284 31 -367 24z m295 -151
c326 -82 519 -303 593 -683 59 -297 60 -484 6 -715 -21 -92 -115 -283 -204
-415 -191 -286 -268 -379 -377 -456 -147 -106 -272 -99 -426 22 -162 127 -482
606 -543 813 -91 312 -42 788 112 1081 145 277 518 434 839 353z m-1288 -1875
c-3 -8 -6 -5 -6 6 -1 11 2 17 5 13 3 -3 4 -12 1 -19z m98 -117 c3 -5 2 -12 -3
-15 -5 -3 -9 1 -9 9 0 17 3 19 12 6z"/>
<path d="M793 1387 c12 -155 63 -272 162 -373 73 -73 129 -112 215 -147 105
-44 270 -64 270 -34 0 31 -84 247 -122 315 -74 131 -180 226 -306 275 -33 13
-192 47 -220 47 -3 0 -2 -37 1 -83z"/>
<path d="M2118 1450 c-192 -40 -331 -152 -425 -341 -42 -85 -103 -252 -103
-282 0 -11 100 -7 166 7 34 7 92 27 129 44 37 18 71 29 76 26 5 -3 8 -1 7 3
-2 5 22 30 52 54 136 111 220 289 220 465 0 52 4 51 -122 24z"/>
<path d="M2556 2326 c3 -8 13 -17 22 -21 13 -5 13 -2 -3 15 -21 24 -26 25 -19
6z"/>
<path d="M251 1074 c0 -11 3 -14 6 -6 3 7 2 16 -1 19 -3 4 -6 -2 -5 -13z"/>
</g>
</svg>
